<?xml version="1.0" encoding="utf-8"?>
<!-- Generator: Adobe Illustrator 16.0.3, SVG Export Plug-In . SVG Version: 6.00 Build 0)  -->
<!DOCTYPE svg PUBLIC "-//W3C//DTD SVG 1.1//EN" "http://www.w3.org/Graphics/SVG/1.1/DTD/svg11.dtd">
<svg version="1.1" id="Layer_1" xmlns="http://www.w3.org/2000/svg" xmlns:xlink="http://www.w3.org/1999/xlink" x="0px" y="0px"
	 width="100px" height="80px" viewBox="0 0 330 250" enable-background="new 0 0 330 250" xml:space="preserve">
<g>
	<g>
		<path fill-rule="evenodd" clip-rule="evenodd" fill="none" d="M334.649,280.128c-113.219,0-226.318,0-339.299,0
			c0-96.87,0-193.623,0-290.255c113.219,0,226.317,0,339.299,0C334.649,86.743,334.649,183.494,334.649,280.128z M202.058,183.711
			c-3.62,12.299,6.088,18.07,18.816,13.684c25.75-8.873,52.016-18.183,75.145-32.154c20.496-12.381,25.35-35.529,19.137-58.717
			c-6.016-22.468-21.482-37.796-44.477-40.988c-14.236-1.979-21.459-8.627-29.313-19.399C202.711-6.876,124.085-5.795,87.033,48.211
			C80.038,58.406,73.12,63.637,60.437,65.205c-25.295,3.126-44.453,24.634-47.189,49.413c-2.913,26.352,10.607,53.317,35.529,59.92
			c24.325,6.443,49.628,9.098,72.639,20.428c1.135,0.561,3.335-1.044,4.863-1.578c1.951-18.414-27.432-41.471-46.725-36.813
			c-15.215,3.676-27.412-1.236-36.863-12.809c-9.631-11.795-11.268-25.183-3.743-38.691c7.317-13.14,19.309-21.992,33.974-18.824
			c15.76,3.406,20.129-3.679,26.053-15.726c23.334-47.451,83.965-56.156,119.637-17.17c9.027,9.868,14.691,22.816,22.164,34.766
			c1.221,0,3.125,0.298,4.908-0.044c26.199-5.025,44.984,5.309,49.289,27.2c4.193,21.324-10.85,38.739-36.643,42.829
			c-4.141,0.655-8.24,2.297-12.066,4.104C233.026,168.463,219.918,174.992,202.058,183.711z M106.548,150.506
			c9.926,1.581,13.601,3.051,16.992,2.557c18.465-2.686,22.473,6.646,21.563,22.928c-1.045,18.744,0.006,37.601-0.186,56.404
			c-0.14,13.669,8.899,14.653,19.007,14.47c10.065-0.184,21.158,1.182,21.103-14.202c-0.051-14.416,0.105-28.836,0.111-43.254
			c0.011-32.637,0-32.617,30.162-37.617c0.796-0.133,1.33-1.838,4.318-6.254c-15.334-14.396-30.91-29.675-47.41-43.885
			c-2.857-2.461-11.489-2.524-14.258-0.078C141.62,116.011,126.235,131.518,106.548,150.506z"/>
		<path fill-rule="evenodd" clip-rule="evenodd" d="M202.058,183.711c17.86-8.719,30.969-15.248,44.205-21.502
			c3.826-1.807,7.926-3.448,12.066-4.104c25.793-4.09,40.836-21.505,36.643-42.829c-4.305-21.891-23.09-32.226-49.289-27.2
			c-1.783,0.343-3.688,0.044-4.908,0.044c-7.473-11.95-13.137-24.898-22.164-34.766c-35.672-38.986-96.303-30.28-119.637,17.17
			C93.05,82.572,88.681,89.657,72.921,86.25c-14.665-3.168-26.656,5.685-33.974,18.824c-7.524,13.508-5.888,26.896,3.743,38.691
			c9.451,11.572,21.648,16.484,36.863,12.809c19.293-4.658,48.676,18.398,46.725,36.813c-1.528,0.534-3.729,2.139-4.863,1.578
			c-23.011-11.33-48.313-13.984-72.639-20.428c-24.922-6.603-38.442-33.568-35.529-59.92c2.736-24.778,21.895-46.287,47.189-49.413
			c12.684-1.567,19.602-6.799,26.597-16.993c37.052-54.006,115.678-55.088,154.333-2.076c7.854,10.772,15.076,17.421,29.313,19.399
			c22.994,3.192,38.461,18.521,44.477,40.988c6.213,23.188,1.359,46.336-19.137,58.717c-23.129,13.972-49.395,23.281-75.145,32.154
			C208.146,201.781,198.438,196.01,202.058,183.711z"/>
		<path fill-rule="evenodd" clip-rule="evenodd" d="M106.548,150.506c19.688-18.988,35.072-34.495,51.402-48.931
			c2.769-2.446,11.4-2.383,14.258,0.078c16.5,14.21,32.076,29.488,47.41,43.885c-2.988,4.416-3.522,6.121-4.318,6.254
			c-30.162,5-30.151,4.98-30.162,37.617c-0.006,14.418-0.162,28.838-0.111,43.254c0.056,15.384-11.037,14.019-21.103,14.202
			c-10.107,0.184-19.146-0.801-19.007-14.47c0.191-18.804-0.859-37.66,0.186-56.404c0.91-16.281-3.098-25.613-21.563-22.928
			C120.148,153.557,116.474,152.087,106.548,150.506z"/>
	</g>
</g>
</svg>
